<?xml version="1.0" encoding="UTF-8" standalone="no"?>
<svg
   xmlns:dc="http://purl.org/dc/elements/1.1/"
   xmlns:cc="http://creativecommons.org/ns#"
   xmlns:rdf="http://www.w3.org/1999/02/22-rdf-syntax-ns#"
   xmlns:svg="http://www.w3.org/2000/svg"
   xmlns="http://www.w3.org/2000/svg"
   viewBox="0 0 317.91733 445.26645"
   height="445.26645"
   width="317.91733"
   version="1.1"
   id="svg4209">
  <metadata
     id="metadata4215">
    <rdf:RDF>
      <cc:Work
         rdf:about="">
        <dc:format>image/svg+xml</dc:format>
        <dc:type
           rdf:resource="http://purl.org/dc/dcmitype/StillImage" />
        <dc:title></dc:title>
      </cc:Work>
    </rdf:RDF>
  </metadata>
  <defs
     id="defs4213" />
  <path
     id="path4219"
     d="m 36.250002,385.26644 0,-60 -18.125,0 -18.125002,0 0,-8.125 0,-8.125 18.125002,0 18.125,0 0,-154.50821 0,-154.50823 80.312498,0.623882 c 83.60791,0.649482 88.42726,0.934568 110.51422,6.537385 46.59692,11.820277 78.5418,44.750404 88.63553,91.369229 2.94574,13.605134 2.93879,44.897754 -0.013,58.534804 -5.19699,24.00974 -14.24341,41.58725 -29.67681,57.66304 -15.57765,16.22604 -31.68554,25.86884 -54.02862,32.34361 -21.98667,6.3715 -30.90537,6.94449 -108.09174,6.94449 l -71.402078,0 0,27.5 0,27.5 102.499998,0 102.5,0 0,8.125 0,8.125 -102.5,0 -102.499998,0 0,60 0,60 -8.125,0 -8.125,0 0,-60 z M 204.79771,235.79996 c 29.6281,-4.39935 48.34145,-13.30923 66.45229,-31.6396 13.31766,-13.47906 21.37333,-26.92364 26.3002,-43.89392 3.87478,-13.34642 4.82432,-41.8013 1.88152,-56.38297 -8.29454,-41.099727 -36.60608,-70.543859 -77.92034,-81.037514 -17.70252,-4.496365 -29.17337,-5.079519 -99.91609,-5.079519 l -69.095288,0 0,110.000003 0,110 69.527078,0 c 56.79377,0 71.95252,-0.36015 82.77063,-1.96648 z"
     style="fill:#000000;fill-opacity:1" />
</svg>
